<?xml version="1.0" encoding="UTF-8" standalone="no"?>
<svg
   xmlns:dc="http://purl.org/dc/elements/1.1/"
   xmlns:cc="http://creativecommons.org/ns#"
   xmlns:rdf="http://www.w3.org/1999/02/22-rdf-syntax-ns#"
   xmlns:svg="http://www.w3.org/2000/svg"
   xmlns="http://www.w3.org/2000/svg"
   version="1.1"
   viewBox="0 0 26.458333 26.458334"
   height="100"
   width="100">
  <g transform="translate(0,-270.54165)">
    <g
       style="fill:none;fill-opacity:1"
       transform="translate(0.17125135,-0.08562568)">
      <circle
         r="11.024306"
         cy="283.79224"
         cx="13.036509"
         style="fill:#1589ee;fill-opacity:1;fill-rule:nonzero;stroke:none;stroke-width:0.81315792;stroke-linecap:round;stroke-linejoin:round;stroke-miterlimit:29;stroke-dasharray:none;stroke-opacity:1;paint-order:normal" />
      <path
         d="m 16.611381,276.74951 2.311893,3.81035 v 1.84095 h -3.639091 l -0.513754,4.23847 1.926577,3.12534 v 1.71251 H 9.8897653"
         style="fill:none;stroke:#0070d2;stroke-width:0.60000002;stroke-linecap:round;stroke-linejoin:round;stroke-miterlimit:4;stroke-dasharray:none;stroke-opacity:1" />
      <path
         d="m 13.768508,281.66448 c -0.895465,0.0213 -1.796891,-0.0153 -2.688513,0.0691 -0.13262,0.0715 0.02311,0.28817 -0.0055,0.40396 0.03897,0.22554 0.05458,0.46365 0.110879,0.68091 1.059864,0.14703 2.117323,0.34887 3.177933,0.46759 0.141117,-0.19374 0.08381,-0.48253 0.141235,-0.70888 0.01611,-0.29528 0.09967,-0.61353 0.05861,-0.90011 -0.263675,-0.0205 -0.53019,-0.009 -0.79463,-0.0125 z"
         style="fill:#0070d2;fill-opacity:1;fill-rule:nonzero;stroke:none;stroke-width:0.09708738;stroke-linecap:round;stroke-linejoin:round;stroke-miterlimit:4;stroke-dasharray:none;stroke-opacity:1;paint-order:normal" />
      <g transform="translate(-0.08562567,-1.4556365)">
        <path
           style="fill:#1589ee;fill-opacity:1;stroke:#ffffff;stroke-width:0.60000002;stroke-linecap:round;stroke-linejoin:round;stroke-miterlimit:4;stroke-dasharray:none;stroke-opacity:1"
           d="M 7.4922463,281.92987 H 18.537957 v 1.45564 H 7.5350593 v -1.45564 l 2.1978938,-3.80686 h 6.4502989 l 2.397641,3.98466" />
        <path
           style="fill:none;stroke:#ffffff;stroke-width:0.60000002;stroke-linecap:round;stroke-linejoin:round;stroke-miterlimit:4;stroke-dasharray:none;stroke-opacity:1"
           d="m 11.002899,283.3855 0.941882,7.10693 h 2.09783 l 0.813443,-7.10693" />
        <path
           style="fill:none;stroke:#ffffff;stroke-width:0.60000002;stroke-linecap:round;stroke-linejoin:round;stroke-miterlimit:4;stroke-dasharray:none;stroke-opacity:1"
           d="m 11.559466,288.18054 -1.9219119,3.32885 h 6.7169499 l -1.949452,-3.19382" />
        <path
           style="fill:none;stroke:#ffffff;stroke-width:0.60438085;stroke-linecap:round;stroke-linejoin:round;stroke-miterlimit:4;stroke-dasharray:none;stroke-opacity:1"
           d="m 9.6397326,291.51109 v 0.94854 h 6.7125924 v -1.06593" />
      </g>
    </g>
  </g>
</svg>
