<?xml version="1.0" encoding="UTF-8" standalone="no"?>
<svg
   xmlns="http://www.w3.org/2000/svg"
   xml:space="preserve"
   enable-background="new 0 0 40 40"
   viewBox="0 0 40 40"
   y="0px"
   x="0px"
   id="图层_1"
   version="1.1">
<g>
	<g>
		<g>
			<g>
				<path
   d="M20,25.2c-3.6,0-7.5-0.8-7.5-2.5c0-0.3,0.2-0.5,0.5-0.5c0.8,0,1.5-0.7,1.5-1.5v-2c0-3,2.5-5.5,5.5-5.5      s5.5,2.5,5.5,5.5v2c0,0.8,0.7,1.5,1.5,1.5c0.3,0,0.5,0.2,0.5,0.5C27.5,24.4,23.6,25.2,20,25.2z M13.8,23.1      c0.8,0.5,2.8,1.1,6.2,1.1s5.4-0.6,6.2-1.1c-1-0.3-1.7-1.3-1.7-2.4v-2c0-2.5-2-4.5-4.5-4.5s-4.5,2-4.5,4.5v2      C15.5,21.8,14.8,22.7,13.8,23.1z"
   fill="#231815" />
			</g>
			<g>
				<path
   d="M20,27.7c-1.7,0-3-1.3-3-3c0-0.3,0.2-0.5,0.5-0.5s0.5,0.2,0.5,0.5c0,1.1,0.9,2,2,2s2-0.9,2-2      c0-0.3,0.2-0.5,0.5-0.5s0.5,0.2,0.5,0.5C23,26.4,21.7,27.7,20,27.7z"
   fill="#231815" />
			</g>
			<g>
				<path
   d="M19.5,13.7v-2c0-0.3,0.2-0.5,0.5-0.5s0.5,0.2,0.5,0.5v2H19.5z"
   fill="#231815" />
			</g>
		</g>
	</g>
</g>
<path
   d="m 19.709883,14.033498 c -1.380443,-0.0448 -2.643126,0.795518 -3.478301,1.83963 -0.457773,0.578759 -0.748696,1.295402 -0.892212,2.009072 -0.0575,1.13467 0.01522,2.282299 -0.140078,3.408928 -0.205775,0.726502 -0.779347,1.277587 -1.434672,1.613625 -0.276937,0.280898 0.135304,0.554342 0.388104,0.621012 2.258853,0.899603 4.742549,0.914191 7.137195,0.853103 1.643054,-0.09665 3.341793,-0.267816 4.843217,-0.99039 0.28928,-0.119902 0.203156,-0.517466 -0.07806,-0.582389 -0.774489,-0.36093 -1.333294,-1.163228 -1.311456,-2.030496 -0.09345,-1.101415 0.02488,-2.223958 -0.184311,-3.312482 -0.479748,-1.714738 -1.986671,-3.134623 -3.756738,-3.41194 -0.363452,-0.02703 -0.728578,-0.01586 -1.092683,-0.01767 z"
   style="fill:#231815;fill-opacity:1;stroke:none;stroke-width:0.46588078;stroke-linecap:butt;stroke-miterlimit:4;stroke-dasharray:none;stroke-opacity:1" />
<path
   d="m 19.35619,24.937966 c -0.462644,0.04461 -0.970573,-0.08223 -1.408807,0.09644 -0.231697,0.269908 0.08286,0.623237 0.211491,0.877563 0.522375,0.801475 1.573723,1.212671 2.491657,0.898514 0.730001,-0.21021 1.314124,-0.864769 1.496118,-1.592091 -0.08453,-0.38876 -0.597489,-0.232663 -0.883646,-0.277388 -0.635587,-0.0051 -1.271212,-0.0029 -1.906813,-0.003 z"
   style="fill:#231815;fill-opacity:1;stroke:none;stroke-width:0.46588078;stroke-linecap:butt;stroke-miterlimit:4;stroke-dasharray:none;stroke-opacity:1" />
</svg>