<svg xmlns="http://www.w3.org/2000/svg" xmlns:xlink="http://www.w3.org/1999/xlink"><defs><style>
    .sprite-symbol-usage {display: none;}
    .sprite-symbol-usage:target {display: inline;}
  </style><symbol viewBox="0 0 64 64" id="arrow-left-color">
  <title>Arrow Left</title>
  <desc>A line styled icon from Orion Icon Library.</desc>
  <path data-name="layer2" fill="none" stroke="#1589EE" stroke-miterlimit="10" stroke-width="2" d="M14 31.998h36" stroke-linejoin="round" stroke-linecap="round" />
  <path data-name="layer1" fill="none" stroke="#1589EE" stroke-miterlimit="10" stroke-width="2" d="M28 18L14 32l14 14" stroke-linejoin="round" stroke-linecap="round" />
</symbol><symbol viewBox="0 0 40 40" id="bell">
<g>
	<g>
		<g>
			<g>
				<path fill="#1589EE" d="M20,25.2c-3.6,0-7.5-0.8-7.5-2.5c0-0.3,0.2-0.5,0.5-0.5c0.8,0,1.5-0.7,1.5-1.5v-2c0-3,2.5-5.5,5.5-5.5
					s5.5,2.5,5.5,5.5v2c0,0.8,0.7,1.5,1.5,1.5c0.3,0,0.5,0.2,0.5,0.5C27.5,24.4,23.6,25.2,20,25.2z M13.8,23.1
					c0.8,0.5,2.8,1.1,6.2,1.1s5.4-0.6,6.2-1.1c-1-0.3-1.7-1.3-1.7-2.4v-2c0-2.5-2-4.5-4.5-4.5s-4.5,2-4.5,4.5v2
					C15.5,21.8,14.8,22.7,13.8,23.1z" />
			</g>
			<g>
				<path fill="#1589EE" d="M20,27.7c-1.7,0-3-1.3-3-3c0-0.3,0.2-0.5,0.5-0.5s0.5,0.2,0.5,0.5c0,1.1,0.9,2,2,2s2-0.9,2-2
					c0-0.3,0.2-0.5,0.5-0.5s0.5,0.2,0.5,0.5C23,26.4,21.7,27.7,20,27.7z" />
			</g>
			<g>
				<path fill="#1589EE" d="M19.5,13.7v-2c0-0.3,0.2-0.5,0.5-0.5s0.5,0.2,0.5,0.5v2H19.5z" />
			</g>
		</g>
	</g>
</g>
</symbol><symbol viewBox="0 0 64 64" id="envelope">
  <title>Envelope</title>
  <desc>A line styled icon from Orion Icon Library.</desc>
  <path data-name="layer2" fill="none" stroke="#C2C9D6" stroke-miterlimit="10" stroke-width="2" d="M2 12l30 27.4L62 12" stroke-linejoin="round" stroke-linecap="round" />
  <path data-name="layer1" fill="none" stroke="#C2C9D6" stroke-miterlimit="10" stroke-width="2" d="M2 12h60v40H2z" stroke-linejoin="round" stroke-linecap="round" />
</symbol><symbol viewBox="0 0 64 64" id="house">
  <title>House</title>
  <desc>A line styled icon from Orion Icon Library.</desc>
  <path data-name="layer1" d="M54 26.267l7.555 7.3a.25.25 0 0 1-.174.43H54V62H40V44H24v18H10V34H2.618a.25.25 0 0 1-.174-.43L32 5l13 12.567V12h9z" fill="none" stroke="#C2C9D6" stroke-linecap="round" stroke-miterlimit="10" stroke-width="2" stroke-linejoin="miter" />
</symbol><symbol viewBox="0 0 64 64" id="house-color">
  <title>House</title>
  <desc>A color styled icon from Orion Icon Library.</desc>
  <path data-name="layer1" d="M54 25.267l7.555 7.3a.25.25 0 0 1-.174.43H54V61H40V43H24v18H10V33H2.618a.25.25 0 0 1-.174-.43L32 4l13 12.567V11h9z" fill="#5cadf3" />
  <path data-name="opacity" fill="#000064" opacity=".2" d="M10 32h4v29h-4z" />
  <path data-name="opacity" fill="#fff" opacity=".25" d="M42 16.567v-2.9L32 4l-1.5 1.45L42 16.567zM50 32h4v29h-4zm11.555.57L54 25.267V11h-3v14.267l7.555 7.3a.25.25 0 0 1-.174.43h3a.25.25 0 0 0 .174-.427z" />
  <path data-name="stroke" d="M54 25.267l7.555 7.3a.25.25 0 0 1-.174.43H54V61H40V43H24v18H10V33H2.618a.25.25 0 0 1-.174-.43L32 4l13 12.567V11h9z" fill="none" stroke="#0070d2" stroke-linecap="round" stroke-miterlimit="10" stroke-width="3" stroke-linejoin="miter" />
</symbol><symbol viewBox="0 0 64 64" id="house-darkblue">
  <title>House</title>
  <desc>A line styled icon from Orion Icon Library.</desc>
  <path data-name="layer1" d="M54 26.267l7.555 7.3a.25.25 0 0 1-.174.43H54V62H40V44H24v18H10V34H2.618a.25.25 0 0 1-.174-.43L32 5l13 12.567V12h9z" fill="none" stroke="#00396B" stroke-linecap="round" stroke-miterlimit="10" stroke-width="2" stroke-linejoin="miter" />
</symbol><symbol viewBox="0 0 64 64" id="lock">
  <title>Lock</title>
  <desc>A line styled icon from Orion Icon Library.</desc>
  <path data-name="layer2" d="M19 30V15A13 13 0 0 1 32 2a13 13 0 0 1 13 13v15" fill="none" stroke="#C2C9D6" stroke-miterlimit="10" stroke-width="2" stroke-linejoin="miter" stroke-linecap="round" />
  <path data-name="layer1" fill="none" stroke="#C2C9D6" stroke-miterlimit="10" stroke-width="2" d="M32 41v10" stroke-linejoin="miter" stroke-linecap="round" />
  <rect data-name="layer1" x="10" y="30" width="44" height="32" rx="6" ry="6" fill="none" stroke="#C2C9D6" stroke-miterlimit="10" stroke-width="2" stroke-linejoin="miter" stroke-linecap="round" />
</symbol><symbol viewBox="0 0 64 64" id="paperwork">
  <title>Paperwork</title>
  <desc>A line styled icon from Orion Icon Library.</desc>
  <path data-name="layer2" fill="none" stroke="#C2C9D6" stroke-miterlimit="10" stroke-width="2" d="M12 14V2h48v60H42" stroke-linejoin="miter" stroke-linecap="round" />
  <path data-name="layer1" fill="none" stroke="#C2C9D6" stroke-miterlimit="10" stroke-width="2" d="M4 14h38v48H4zm10 10h18M14 34h18m-18 8h10" stroke-linejoin="miter" stroke-linecap="round" />
</symbol><symbol viewBox="0 0 64 64" id="paperwork-darkblue">
  <title>Paperwork</title>
  <desc>A line styled icon from Orion Icon Library.</desc>
  <path data-name="layer2" fill="none" stroke="#00396B" stroke-miterlimit="10" stroke-width="2" d="M12 14V2h48v60H42" stroke-linejoin="miter" stroke-linecap="round" />
  <path data-name="layer1" fill="none" stroke="#00396B" stroke-miterlimit="10" stroke-width="2" d="M4 14h38v48H4zm10 10h18M14 34h18m-18 8h10" stroke-linejoin="miter" stroke-linecap="round" />
</symbol><symbol viewBox="0 0 64 64" id="quiz">
  <title>Edit</title>
  <desc>A line styled icon from Orion Icon Library.</desc>
  <path d="M54.894 21.697l6.276-6.263-8.026-8.026-6.276 6.264" stroke-width="2" stroke-miterlimit="10" stroke="#C2C9D6" fill="none" data-name="layer1" stroke-linejoin="miter" stroke-linecap="round" />
  <path d="M33.037 40.592h16.955l11.438 16H2.57l11.422-16h11.69" stroke-width="2" stroke-miterlimit="10" stroke="#C2C9D6" fill="none" data-name="layer2" stroke-linejoin="miter" stroke-linecap="round" />
  <path d="M23.885 44.645l6.383-14.407 16.6-16.566 8.026 8.025-16.601 16.566-14.408 6.382zm6.383-14.407l8.025 8.025" stroke-width="2" stroke-miterlimit="10" stroke="#C2C9D6" fill="none" data-name="layer1" stroke-linejoin="miter" stroke-linecap="round" />
</symbol><symbol viewBox="0 0 64 64" id="quiz-darkblue">
  <title>Edit</title>
  <desc>A line styled icon from Orion Icon Library.</desc>
  <path d="M54.894 21.697l6.276-6.263-8.026-8.026-6.276 6.264" stroke-width="2" stroke-miterlimit="10" stroke="#00396B" fill="none" data-name="layer1" stroke-linejoin="miter" stroke-linecap="round" />
  <path d="M33.037 40.592h16.955l11.438 16H2.57l11.422-16h11.69" stroke-width="2" stroke-miterlimit="10" stroke="#00396B" fill="none" data-name="layer2" stroke-linejoin="miter" stroke-linecap="round" />
  <path d="M23.885 44.645l6.383-14.407 16.6-16.566 8.026 8.025-16.601 16.566-14.408 6.382zm6.383-14.407l8.025 8.025" stroke-width="2" stroke-miterlimit="10" stroke="#00396B" fill="none" data-name="layer1" stroke-linejoin="miter" stroke-linecap="round" />
</symbol><symbol viewBox="0 0 64 64" id="report">
  <title>Bar Chart</title>
  <desc>A line styled icon from Orion Icon Library.</desc>
  <path data-name="layer1" fill="none" stroke="#C2C9D6" stroke-miterlimit="10" stroke-width="2" d="M52 54V10h8v44" stroke-linejoin="miter" stroke-linecap="round" />
  <path data-name="layer2" fill="none" stroke="#C2C9D6" stroke-miterlimit="10" stroke-width="2" d="M36 54V30h8v24" stroke-linejoin="miter" stroke-linecap="round" />
  <path data-name="layer1" fill="none" stroke="#C2C9D6" stroke-miterlimit="10" stroke-width="2" d="M20 54V22h8v32" stroke-linejoin="miter" stroke-linecap="round" />
  <path data-name="layer2" fill="none" stroke="#C2C9D6" stroke-miterlimit="10" stroke-width="2" d="M4 54V42h8v12" stroke-linejoin="miter" stroke-linecap="round" />
  <path data-name="layer1" fill="none" stroke="#C2C9D6" stroke-miterlimit="10" stroke-width="2" d="M62 54H2" stroke-linejoin="miter" stroke-linecap="round" />
</symbol><symbol viewBox="0 0 64 64" id="report-darkblue">
  <title>Bar Chart</title>
  <desc>A line styled icon from Orion Icon Library.</desc>
  <path data-name="layer1" fill="none" stroke="#00396B" stroke-miterlimit="10" stroke-width="2" d="M52 54V10h8v44" stroke-linejoin="miter" stroke-linecap="round" />
  <path data-name="layer2" fill="none" stroke="#00396B" stroke-miterlimit="10" stroke-width="2" d="M36 54V30h8v24" stroke-linejoin="miter" stroke-linecap="round" />
  <path data-name="layer1" fill="none" stroke="#00396B" stroke-miterlimit="10" stroke-width="2" d="M20 54V22h8v32" stroke-linejoin="miter" stroke-linecap="round" />
  <path data-name="layer2" fill="none" stroke="#00396B" stroke-miterlimit="10" stroke-width="2" d="M4 54V42h8v12" stroke-linejoin="miter" stroke-linecap="round" />
  <path data-name="layer1" fill="none" stroke="#00396B" stroke-miterlimit="10" stroke-width="2" d="M62 54H2" stroke-linejoin="miter" stroke-linecap="round" />
</symbol><symbol viewBox="0 0 64 64" id="textbook">
  <title>Textbook</title>
  <desc>A line styled icon from Orion Icon Library.</desc>
  <path data-name="layer1" fill="none" stroke="#C2C9D6" stroke-miterlimit="10" stroke-width="2" d="M18 10h31" stroke-linejoin="miter" stroke-linecap="round" />
  <path data-name="layer2" d="M54 2H18a8 8 0 0 0 0 16h36v44H18a8 8 0 0 1-8-8V10" fill="none" stroke="#C2C9D6" stroke-miterlimit="10" stroke-width="2" stroke-linejoin="miter" stroke-linecap="round" />
  <path data-name="layer1" fill="none" stroke="#C2C9D6" stroke-miterlimit="10" stroke-width="2" d="M22 26h20v16H22z" stroke-linejoin="miter" stroke-linecap="round" />
</symbol><symbol viewBox="0 0 64 64" id="textbook-color">
  <title>Textbook</title>
  <desc>A color styled icon from Orion Icon Library.</desc>
  <path data-name="layer2" d="M10 10v44a8 8 0 0 0 8 8h36V18H18a8 8 0 0 1-8-8" fill="#55a9f3" />
  <path data-name="layer1" d="M53 2H18a8 8 0 0 0 0 16h35z" fill="#ffffff" />
  <path data-name="opacity" d="M18 2a8 8 0 0 0-7.6 10.5A8 8 0 0 1 18 7h35V2z" fill="#000064" opacity=".1" />
  <path data-name="opacity" d="M10 10v44a8 8 0 0 0 8 8V18a8 8 0 0 1-8-8z" fill="#000064" opacity=".15" />
  <path data-name="layer1" fill="#ffffff" d="M22 26h20v16H22z" />
  <path data-name="stroke" fill="none" stroke="#0070d2" stroke-linecap="round" stroke-miterlimit="10" stroke-width="3" d="M18 10h31m5-8H18a8 8 0 0 0 0 16h36v44H18a8 8 0 0 1-8-8V10" stroke-linejoin="miter" />
  <path data-name="stroke" fill="none" stroke="#0070d2" stroke-linecap="round" stroke-miterlimit="10" stroke-width="3" d="M22 26h20v16H22zM53 2v16" stroke-linejoin="miter" />
</symbol><symbol viewBox="0 0 64 64" id="textbook-darkblue">
  <title>Textbook</title>
  <desc>A line styled icon from Orion Icon Library.</desc>
  <path data-name="layer1" fill="none" stroke="#00396B" stroke-miterlimit="10" stroke-width="2" d="M18 10h31" stroke-linejoin="miter" stroke-linecap="round" />
  <path data-name="layer2" d="M54 2H18a8 8 0 0 0 0 16h36v44H18a8 8 0 0 1-8-8V10" fill="none" stroke="#00396B" stroke-miterlimit="10" stroke-width="2" stroke-linejoin="miter" stroke-linecap="round" />
  <path data-name="layer1" fill="none" stroke="#00396B" stroke-miterlimit="10" stroke-width="2" d="M22 26h20v16H22z" stroke-linejoin="miter" stroke-linecap="round" />
</symbol><symbol viewBox="0 0 64 64" id="user">
  <title>User</title>
  <desc>A line styled icon from Orion Icon Library.</desc>
  <path data-name="layer1" d="M46 26c0 6.1-3.4 11.5-7 14.8V44c0 2 1 5.1 11 7a15.5 15.5 0 0 1 12 11H2a13.4 13.4 0 0 1 11-11c10-1.8 12-5 12-7v-3.2c-3.6-3.3-7-8.6-7-14.8v-9.6C18 6 25.4 2 32 2s14 4 14 14.4z" fill="none" stroke="#C2C9D6" stroke-miterlimit="10" stroke-width="2" stroke-linejoin="miter" stroke-linecap="round" />
</symbol></defs><use id="arrow-left-color-usage" xlink:href="#arrow-left-color" class="sprite-symbol-usage" /><use id="bell-usage" xlink:href="#bell" class="sprite-symbol-usage" /><use id="envelope-usage" xlink:href="#envelope" class="sprite-symbol-usage" /><use id="house-usage" xlink:href="#house" class="sprite-symbol-usage" /><use id="house-color-usage" xlink:href="#house-color" class="sprite-symbol-usage" /><use id="house-darkblue-usage" xlink:href="#house-darkblue" class="sprite-symbol-usage" /><use id="lock-usage" xlink:href="#lock" class="sprite-symbol-usage" /><use id="paperwork-usage" xlink:href="#paperwork" class="sprite-symbol-usage" /><use id="paperwork-darkblue-usage" xlink:href="#paperwork-darkblue" class="sprite-symbol-usage" /><use id="quiz-usage" xlink:href="#quiz" class="sprite-symbol-usage" /><use id="quiz-darkblue-usage" xlink:href="#quiz-darkblue" class="sprite-symbol-usage" /><use id="report-usage" xlink:href="#report" class="sprite-symbol-usage" /><use id="report-darkblue-usage" xlink:href="#report-darkblue" class="sprite-symbol-usage" /><use id="textbook-usage" xlink:href="#textbook" class="sprite-symbol-usage" /><use id="textbook-color-usage" xlink:href="#textbook-color" class="sprite-symbol-usage" /><use id="textbook-darkblue-usage" xlink:href="#textbook-darkblue" class="sprite-symbol-usage" /><use id="user-usage" xlink:href="#user" class="sprite-symbol-usage" /></svg>